# xmcd CD database file
#
# Track frame offsets:
#	150
#	15037
#	32204
#	51462
#	69473
#	86715
#	103631
#	122121
#	161988
#	178065
#
# Disc length: 2666 seconds
#
# Revision: 2
# Processed by: cddbd v1.4b41PL1 Copyright (c) Steve Scherf et al.
# Submitted via: Feurio! 1.50.2ß - http://www.feurio.com
#
DISCID=840a680a
DTITLE=Joan Baez - From every stage disc#2
DYEAR=1900
DGENRE=
TTITLE0=Love is just a four - letter word
TTITLE1=Forever young
TTITLE2=Diamonds and rust
TTITLE3=Boulder to birmingham
TTITLE4=Swing low, sweet chariot
TTITLE5=Oh, happy day
TTITLE6=Please come to boston
TTITLE7=Lily, rosemary and the jack of hearts
TTITLE8=The night the drove old dixi down
TTITLE9=Amazing grace
EXTD=
EXTT0=
EXTT1=
EXTT2=
EXTT3=
EXTT4=
EXTT5=
EXTT6=
EXTT7=
EXTT8=
EXTT9=
PLAYORDER=
